<mxfile host="app.diagrams.net" modified="2024-07-02T10:52:55.329Z" agent="Mozilla/5.0 (Windows NT 10.0; Win64; x64) AppleWebKit/537.36 (KHTML, like Gecko) Chrome/126.0.0.0 Safari/537.36" version="24.6.4" etag="68o5wvYLmAv61Yhlz4Lx" type="github">
  <diagram name="Page-1" id="o2UkXBqcd1zy0RW0xcp0">
    <mxGraphModel>
      <root>
        <mxCell id="0" />
        <mxCell id="1" parent="0" />
      </root>
    </mxGraphModel>
  </diagram>
</mxfile>
